# Blender v2.80 (sub 75) OBJ File: 'ah.blend'
# www.blender.org
mtllib W.mtl
o W_WristRot.002
v 0.187605 1.794062 77.409668
v 0.334567 1.824099 77.259666
v 0.196946 1.949072 77.409668
v 0.339238 1.901604 77.259666
v 0.282541 2.078645 77.409668
v 0.382035 1.966391 77.259666
v 0.421454 2.148060 77.409668
v 0.451491 2.001099 77.259666
v 0.576464 2.138720 77.409668
v 0.528996 1.996428 77.259666
v 0.706037 2.053125 77.409668
v 0.593783 1.953631 77.259666
v 0.775452 1.914212 77.409668
v 0.628491 1.884174 77.259666
v 0.766112 1.759202 77.409668
v 0.623820 1.806669 77.259666
v 0.680517 1.629629 77.409668
v 0.581023 1.741883 77.259666
v 0.541604 1.560213 77.409668
v 0.511566 1.707175 77.259666
v 0.386594 1.569554 77.409668
v 0.434061 1.711846 77.259666
v 0.257021 1.655149 77.409668
v 0.369275 1.754643 77.259666
v 0.581023 1.741883 77.109665
v 0.623820 1.806669 77.109665
v 0.628491 1.884174 77.109665
v 0.593783 1.953631 77.109665
v 0.528996 1.996428 77.109665
v 0.451491 2.001099 77.109665
v 0.382035 1.966391 77.109665
v 0.339238 1.901604 77.109665
v 0.334567 1.824099 77.109665
v 0.369275 1.754643 77.109665
v 0.434061 1.711846 77.109665
v 0.511566 1.707175 77.109665
v 0.638502 -0.411996 77.409668
v 0.785463 -0.381959 77.259666
v 0.647842 -0.256986 77.409668
v 0.790134 -0.304454 77.259666
v 0.733437 -0.127414 77.409668
v 0.832931 -0.239668 77.259666
v 0.872350 -0.057998 77.409668
v 0.902387 -0.204960 77.259666
v 1.027360 -0.067339 77.409668
v 0.979893 -0.209630 77.259666
v 1.156933 -0.152933 77.409668
v 1.044679 -0.252427 77.259666
v 1.226348 -0.291846 77.409668
v 1.079387 -0.321884 77.259666
v 1.217008 -0.446857 77.409668
v 1.074716 -0.399389 77.259666
v 1.131413 -0.576429 77.409668
v 1.031919 -0.464175 77.259666
v 0.992500 -0.645845 77.409668
v 0.962462 -0.498883 77.259666
v 0.837490 -0.636504 77.409668
v 0.884957 -0.494213 77.259666
v 0.707917 -0.550910 77.409668
v 0.820171 -0.451415 77.259666
v 1.031919 -0.464175 77.109665
v 1.074716 -0.399389 77.109665
v 1.079387 -0.321884 77.109665
v 1.044679 -0.252427 77.109665
v 0.979893 -0.209630 77.109665
v 0.902387 -0.204960 77.109665
v 0.832931 -0.239668 77.109665
v 0.790134 -0.304454 77.109665
v 0.785463 -0.381959 77.109665
v 0.820171 -0.451415 77.109665
v 0.884957 -0.494213 77.109665
v 0.962462 -0.498883 77.109665
v -1.497449 0.300545 77.409668
v -1.350487 0.330583 77.259666
v -1.488108 0.455556 77.409668
v -1.345817 0.408088 77.259666
v -1.402514 0.585128 77.409668
v -1.303020 0.472874 77.259666
v -1.263601 0.654544 77.409668
v -1.233563 0.507582 77.259666
v -1.108590 0.645203 77.409668
v -1.156058 0.502912 77.259666
v -0.979018 0.559608 77.409668
v -1.091272 0.460114 77.259666
v -0.909602 0.420695 77.409668
v -1.056564 0.390658 77.259666
v -0.918943 0.265685 77.409668
v -1.061234 0.313153 77.259666
v -1.004537 0.136113 77.409668
v -1.104031 0.248366 77.259666
v -1.143451 0.066697 77.409668
v -1.173488 0.213659 77.259666
v -1.298461 0.076038 77.409668
v -1.250993 0.218329 77.259666
v -1.428033 0.161632 77.409668
v -1.315779 0.261126 77.259666
v -1.104031 0.248366 77.109665
v -1.061234 0.313153 77.109665
v -1.056564 0.390658 77.109665
v -1.091272 0.460114 77.109665
v -1.156058 0.502912 77.109665
v -1.233563 0.507582 77.109665
v -1.303020 0.472874 77.109665
v -1.345817 0.408088 77.109665
v -1.350487 0.330583 77.109665
v -1.315779 0.261126 77.109665
v -1.250993 0.218329 77.109665
v -1.173488 0.213659 77.109665
v -0.223781 0.560870 77.409668
v -0.223781 0.560870 77.109665
v -0.214440 0.715881 77.409668
v -0.214440 0.715881 77.109665
v -0.128845 0.845453 77.409668
v -0.128845 0.845453 77.109665
v 0.010068 0.914869 77.409668
v 0.010068 0.914869 77.109665
v 0.165078 0.905528 77.409668
v 0.165078 0.905528 77.109665
v 0.294650 0.819933 77.409668
v 0.294650 0.819933 77.109665
v 0.364066 0.681020 77.409668
v 0.364066 0.681020 77.109665
v 0.354725 0.526010 77.409668
v 0.354725 0.526010 77.109665
v 0.269131 0.396438 77.409668
v 0.269131 0.396438 77.109665
v 0.130218 0.327022 77.409668
v 0.130218 0.327022 77.109665
v -0.024792 0.336363 77.409668
v -0.024793 0.336363 77.109665
v -0.154365 0.421957 77.409668
v -0.154365 0.421957 77.109665
v 1.221343 0.856239 77.409668
v 1.221343 0.856239 77.109665
v 1.225235 0.920827 77.409668
v 1.225235 0.920827 77.109665
v 1.260899 0.974815 77.409668
v 1.260899 0.974815 77.109665
v 1.318780 1.003738 77.409668
v 1.318780 1.003738 77.109665
v 1.383367 0.999846 77.409668
v 1.383367 0.999846 77.109665
v 1.437356 0.964182 77.409668
v 1.437356 0.964182 77.109665
v 1.466279 0.906301 77.409668
v 1.466279 0.906301 77.109665
v 1.462387 0.841714 77.409668
v 1.462387 0.841714 77.109665
v 1.426723 0.787725 77.409668
v 1.426723 0.787725 77.109665
v 1.368842 0.758802 77.409668
v 1.368842 0.758802 77.109665
v 1.304255 0.762694 77.409668
v 1.304255 0.762694 77.109665
v 1.250266 0.798359 77.409668
v 1.250266 0.798359 77.109665
v -0.914608 1.568781 77.409668
v -0.914608 1.568781 77.109665
v -0.910716 1.633368 77.409668
v -0.910716 1.633368 77.109665
v -0.875051 1.687357 77.409668
v -0.875051 1.687357 77.109665
v -0.817171 1.716280 77.409668
v -0.817171 1.716280 77.109665
v -0.752583 1.712388 77.409668
v -0.752583 1.712388 77.109665
v -0.698595 1.676724 77.409668
v -0.698595 1.676724 77.109665
v -0.669671 1.618843 77.409668
v -0.669671 1.618843 77.109665
v -0.673563 1.554255 77.409668
v -0.673563 1.554255 77.109665
v -0.709228 1.500267 77.409668
v -0.709228 1.500267 77.109665
v -0.767108 1.471344 77.409668
v -0.767108 1.471344 77.109665
v -0.831696 1.475236 77.409668
v -0.831696 1.475236 77.109665
v -0.885684 1.510900 77.409668
v -0.885684 1.510900 77.109665
v -0.463711 -0.637278 77.409668
v -0.463711 -0.637278 77.109665
v -0.459819 -0.572690 77.409668
v -0.459819 -0.572690 77.109665
v -0.424155 -0.518701 77.409668
v -0.424155 -0.518701 77.109665
v -0.366275 -0.489778 77.409668
v -0.366275 -0.489778 77.109665
v -0.301687 -0.493670 77.409668
v -0.301687 -0.493670 77.109665
v -0.247698 -0.529335 77.409668
v -0.247698 -0.529335 77.109665
v -0.218775 -0.587215 77.409668
v -0.218775 -0.587215 77.109665
v -0.222667 -0.651803 77.409668
v -0.222667 -0.651803 77.109665
v -0.258332 -0.705791 77.409668
v -0.258332 -0.705791 77.109665
v -0.316212 -0.734714 77.409668
v -0.316212 -0.734714 77.109665
v -0.380800 -0.730823 77.409668
v -0.380800 -0.730823 77.109665
v -0.434788 -0.695158 77.409668
v -0.434788 -0.695158 77.109665
v -1.596877 1.617143 77.409668
v -1.596877 1.617143 77.109665
v -1.772056 1.235493 77.409668
v -1.772056 1.235493 77.109665
v -1.861096 0.825107 77.409668
v -1.861096 0.825107 77.109665
v -1.859833 0.405174 77.409668
v -1.859833 0.405174 77.109665
v -1.768327 -0.004669 77.409668
v -1.768327 -0.004669 77.109665
v -1.590856 -0.385259 77.409668
v -1.590856 -0.385259 77.109665
v -1.335719 -0.718800 77.409668
v -1.335719 -0.718800 77.109665
v -1.014845 -0.989696 77.409668
v -1.014845 -0.989696 77.109665
v -0.643238 -1.185281 77.409668
v -0.643238 -1.185281 77.109665
v -0.238274 -1.296408 77.409668
v -0.238275 -1.296408 77.109665
v 0.181110 -1.317882 77.409668
v 0.181110 -1.317882 77.109665
v 0.595307 -1.248698 77.409668
v 0.595307 -1.248698 77.109665
v 0.984947 -1.092093 77.409668
v 0.984947 -1.092093 77.109665
v 1.331811 -0.855387 77.409668
v 1.331811 -0.855387 77.109665
v 1.619682 -0.549649 77.409668
v 1.619682 -0.549649 77.109665
v 1.835098 -0.189176 77.409668
v 1.835098 -0.189176 77.109665
v 1.967986 0.209177 77.409668
v 1.967986 0.209177 77.109665
v 2.012134 0.626784 77.409668
v 2.012134 0.626784 77.109665
v 1.965476 1.044118 77.409668
v 1.965476 1.044118 77.109665
v 1.830194 1.441665 77.409668
v 1.830194 1.441665 77.109665
v 1.612615 1.800837 77.409668
v 1.612615 1.800837 77.109665
v 1.322911 2.104837 77.409668
v 1.322911 2.104837 77.109665
v 0.974629 2.339453 77.409668
v 0.974629 2.339453 77.109665
v 0.584054 2.493713 77.409668
v 0.584054 2.493713 77.109665
v 0.169450 2.560405 77.409668
v 0.169450 2.560405 77.109665
v -0.249798 2.536409 77.409668
v -0.249798 2.536409 77.109665
v -0.654087 2.422849 77.409668
v -0.654087 2.422849 77.109665
v -1.024510 2.225033 77.409668
v -1.024510 2.225033 77.109665
v -1.343750 1.952213 77.409668
v -1.343750 1.952213 77.109665
vn 0.7179 -0.0433 0.6948
vn 0.7180 -0.0433 0.6947
vn 0.6001 -0.3964 0.6947
vn 0.6002 -0.3964 0.6947
vn 0.3215 -0.6434 0.6948
vn 0.3216 -0.6434 0.6947
vn -0.0433 -0.7180 0.6947
vn -0.0432 -0.7180 0.6947
vn -0.3964 -0.6001 0.6947
vn -0.3965 -0.6001 0.6947
vn -0.6434 -0.3215 0.6947
vn -0.7179 0.0433 0.6948
vn -0.7180 0.0433 0.6947
vn -0.6001 0.3964 0.6947
vn -0.3215 0.6434 0.6947
vn -0.3215 0.6434 0.6948
vn 0.0432 0.7180 0.6947
vn 0.0434 0.7180 0.6947
vn 0.3964 0.6001 0.6948
vn 0.3964 0.6001 0.6947
vn 0.6434 0.3215 0.6947
vn -0.8344 0.5512 0.0000
vn -0.9982 0.0602 0.0000
vn -0.9982 0.0601 0.0000
vn -0.8945 -0.4470 0.0000
vn -0.5512 -0.8344 0.0000
vn -0.0601 -0.9982 0.0000
vn -0.0602 -0.9982 0.0000
vn 0.4470 -0.8945 0.0000
vn 0.8344 -0.5512 0.0000
vn 0.9982 -0.0602 0.0000
vn 0.9982 -0.0601 0.0000
vn 0.8945 0.4470 0.0000
vn 0.5512 0.8344 0.0000
vn 0.0601 0.9982 0.0000
vn 0.0602 0.9982 0.0000
vn -0.4470 0.8945 0.0000
vn 0.6001 -0.3965 0.6948
vn 0.3215 -0.6434 0.6947
vn -0.3964 -0.6001 0.6948
vn -0.6434 -0.3215 0.6948
vn -0.6001 0.3965 0.6948
vn -0.6002 0.3964 0.6947
vn -0.3216 0.6434 0.6947
vn 0.0433 0.7180 0.6947
vn 0.3965 0.6001 0.6947
vn 0.6434 0.3215 0.6948
vn -0.9088 0.4172 0.0000
vn -0.9773 0.2120 0.0000
vn -1.0000 -0.0030 0.0000
vn -0.9760 -0.2179 0.0000
vn -0.9063 -0.4226 0.0000
vn -0.7943 -0.6076 0.0000
vn -0.6451 -0.7641 0.0000
vn -0.4657 -0.8849 0.0000
vn -0.4658 -0.8849 0.0000
vn -0.2646 -0.9643 0.0000
vn -0.0511 -0.9987 0.0000
vn 0.1648 -0.9863 0.0000
vn 0.1647 -0.9863 0.0000
vn 0.3729 -0.9279 0.0000
vn 0.5637 -0.8260 0.0000
vn 0.7281 -0.6855 0.0000
vn 0.8584 -0.5130 0.0000
vn 0.9486 -0.3165 0.0000
vn 0.9945 -0.1051 0.0000
vn 0.9938 0.1111 0.0000
vn 0.9467 0.3222 0.0000
vn 0.9467 0.3221 0.0000
vn 0.8553 0.5181 0.0000
vn 0.7239 0.6899 0.0000
vn 0.5587 0.8294 0.0000
vn 0.3673 0.9301 0.0000
vn 0.1588 0.9873 0.0000
vn -0.0571 0.9984 -0.0000
vn -0.2704 0.9627 0.0000
vn -0.4711 0.8821 0.0000
vn -0.6497 0.7602 0.0000
vn -0.7979 0.6028 0.0000
vn 0.0000 0.0000 -1.0000
vn -0.0001 0.0000 -1.0000
vn 0.0001 0.0000 -1.0000
vn -0.0003 0.0000 -1.0000
vn -0.0002 0.0000 -1.0000
vn 0.0002 0.0000 -1.0000
vn 0.0000 0.0000 1.0000
vn 0.0001 0.0000 1.0000
vn -0.0001 0.0000 1.0000
usemtl None
s off
f 1//1 2//1 3//1
f 3//2 2//2 4//2
f 3//3 4//3 5//3
f 5//4 4//4 6//4
f 5//5 6//5 7//5
f 7//6 6//6 8//6
f 7//7 8//7 9//7
f 9//8 8//8 10//8
f 9//9 10//9 11//9
f 11//10 10//10 12//10
f 11//11 12//11 13//11
f 13//11 12//11 14//11
f 13//12 14//12 15//12
f 15//13 14//13 16//13
f 15//14 16//14 17//14
f 17//14 16//14 18//14
f 17//15 18//15 19//15
f 19//16 18//16 20//16
f 19//17 20//17 21//17
f 21//18 20//18 22//18
f 21//19 22//19 23//19
f 23//20 22//20 24//20
f 23//21 24//21 1//21
f 1//21 24//21 2//21
f 25//22 18//22 26//22
f 26//22 18//22 16//22
f 26//23 16//23 27//23
f 27//24 16//24 14//24
f 27//25 14//25 28//25
f 28//25 14//25 12//25
f 28//26 12//26 29//26
f 29//26 12//26 10//26
f 29//27 10//27 30//27
f 30//28 10//28 8//28
f 30//29 8//29 31//29
f 31//29 8//29 6//29
f 31//30 6//30 32//30
f 32//30 6//30 4//30
f 32//31 4//31 33//31
f 33//32 4//32 2//32
f 33//33 2//33 34//33
f 34//33 2//33 24//33
f 34//34 24//34 35//34
f 35//34 24//34 22//34
f 35//35 22//35 36//35
f 36//36 22//36 20//36
f 36//37 20//37 25//37
f 25//37 20//37 18//37
f 37//1 38//1 39//1
f 39//2 38//2 40//2
f 39//4 40//4 41//4
f 41//38 40//38 42//38
f 41//39 42//39 43//39
f 43//6 42//6 44//6
f 43//7 44//7 45//7
f 45//7 44//7 46//7
f 45//40 46//40 47//40
f 47//10 46//10 48//10
f 47//41 48//41 49//41
f 49//11 48//11 50//11
f 49//13 50//13 51//13
f 51//13 50//13 52//13
f 51//42 52//42 53//42
f 53//43 52//43 54//43
f 53//16 54//16 55//16
f 55//44 54//44 56//44
f 55//45 56//45 57//45
f 57//17 56//17 58//17
f 57//20 58//20 59//20
f 59//46 58//46 60//46
f 59//47 60//47 37//47
f 37//21 60//21 38//21
f 61//22 54//22 62//22
f 62//22 54//22 52//22
f 62//23 52//23 63//23
f 63//24 52//24 50//24
f 63//25 50//25 64//25
f 64//25 50//25 48//25
f 64//26 48//26 65//26
f 65//26 48//26 46//26
f 65//27 46//27 66//27
f 66//28 46//28 44//28
f 66//29 44//29 67//29
f 67//29 44//29 42//29
f 67//30 42//30 68//30
f 68//30 42//30 40//30
f 68//31 40//31 69//31
f 69//32 40//32 38//32
f 69//33 38//33 70//33
f 70//33 38//33 60//33
f 70//34 60//34 71//34
f 71//34 60//34 58//34
f 71//35 58//35 72//35
f 72//36 58//36 56//36
f 72//37 56//37 61//37
f 61//37 56//37 54//37
f 73//1 74//1 75//1
f 75//2 74//2 76//2
f 75//3 76//3 77//3
f 77//3 76//3 78//3
f 77//39 78//39 79//39
f 79//6 78//6 80//6
f 79//7 80//7 81//7
f 81//8 80//8 82//8
f 81//40 82//40 83//40
f 83//10 82//10 84//10
f 83//41 84//41 85//41
f 85//11 84//11 86//11
f 85//12 86//12 87//12
f 87//13 86//13 88//13
f 87//14 88//14 89//14
f 89//14 88//14 90//14
f 89//15 90//15 91//15
f 91//16 90//16 92//16
f 91//17 92//17 93//17
f 93//45 92//45 94//45
f 93//19 94//19 95//19
f 95//46 94//46 96//46
f 95//47 96//47 73//47
f 73//21 96//21 74//21
f 97//22 90//22 98//22
f 98//22 90//22 88//22
f 98//23 88//23 99//23
f 99//24 88//24 86//24
f 99//25 86//25 100//25
f 100//25 86//25 84//25
f 100//26 84//26 101//26
f 101//26 84//26 82//26
f 101//27 82//27 102//27
f 102//28 82//28 80//28
f 102//29 80//29 103//29
f 103//29 80//29 78//29
f 103//30 78//30 104//30
f 104//30 78//30 76//30
f 104//31 76//31 105//31
f 105//32 76//32 74//32
f 105//33 74//33 106//33
f 106//33 74//33 96//33
f 106//34 96//34 107//34
f 107//34 96//34 94//34
f 107//35 94//35 108//35
f 108//36 94//36 92//36
f 108//37 92//37 97//37
f 97//37 92//37 90//37
f 109//31 110//31 111//31
f 111//31 110//31 112//31
f 111//30 112//30 113//30
f 113//30 112//30 114//30
f 113//29 114//29 115//29
f 115//29 114//29 116//29
f 115//27 116//27 117//27
f 117//27 116//27 118//27
f 117//26 118//26 119//26
f 119//26 118//26 120//26
f 119//25 120//25 121//25
f 121//25 120//25 122//25
f 121//23 122//23 123//23
f 123//23 122//23 124//23
f 123//22 124//22 125//22
f 125//22 124//22 126//22
f 125//37 126//37 127//37
f 127//37 126//37 128//37
f 127//35 128//35 129//35
f 129//35 128//35 130//35
f 129//34 130//34 131//34
f 131//34 130//34 132//34
f 131//33 132//33 109//33
f 109//33 132//33 110//33
f 133//32 134//32 135//32
f 135//31 134//31 136//31
f 135//30 136//30 137//30
f 137//30 136//30 138//30
f 137//29 138//29 139//29
f 139//29 138//29 140//29
f 139//28 140//28 141//28
f 141//27 140//27 142//27
f 141//26 142//26 143//26
f 143//26 142//26 144//26
f 143//25 144//25 145//25
f 145//25 144//25 146//25
f 145//24 146//24 147//24
f 147//24 146//24 148//24
f 147//22 148//22 149//22
f 149//22 148//22 150//22
f 149//37 150//37 151//37
f 151//37 150//37 152//37
f 151//35 152//35 153//35
f 153//35 152//35 154//35
f 153//34 154//34 155//34
f 155//34 154//34 156//34
f 155//33 156//33 133//33
f 133//33 156//33 134//33
f 157//32 158//32 159//32
f 159//32 158//32 160//32
f 159//30 160//30 161//30
f 161//30 160//30 162//30
f 161//29 162//29 163//29
f 163//29 162//29 164//29
f 163//27 164//27 165//27
f 165//27 164//27 166//27
f 165//26 166//26 167//26
f 167//26 166//26 168//26
f 167//25 168//25 169//25
f 169//25 168//25 170//25
f 169//23 170//23 171//23
f 171//24 170//24 172//24
f 171//22 172//22 173//22
f 173//22 172//22 174//22
f 173//37 174//37 175//37
f 175//37 174//37 176//37
f 175//35 176//35 177//35
f 177//35 176//35 178//35
f 177//34 178//34 179//34
f 179//34 178//34 180//34
f 179//33 180//33 157//33
f 157//33 180//33 158//33
f 181//32 182//32 183//32
f 183//32 182//32 184//32
f 183//30 184//30 185//30
f 185//30 184//30 186//30
f 185//29 186//29 187//29
f 187//29 186//29 188//29
f 187//27 188//27 189//27
f 189//27 188//27 190//27
f 189//26 190//26 191//26
f 191//26 190//26 192//26
f 191//25 192//25 193//25
f 193//25 192//25 194//25
f 193//24 194//24 195//24
f 195//24 194//24 196//24
f 195//22 196//22 197//22
f 197//22 196//22 198//22
f 197//37 198//37 199//37
f 199//37 198//37 200//37
f 199//35 200//35 201//35
f 201//35 200//35 202//35
f 201//34 202//34 203//34
f 203//34 202//34 204//34
f 203//33 204//33 181//33
f 181//33 204//33 182//33
f 205//48 206//48 207//48
f 207//48 206//48 208//48
f 207//49 208//49 209//49
f 209//49 208//49 210//49
f 209//50 210//50 211//50
f 211//50 210//50 212//50
f 211//51 212//51 213//51
f 213//51 212//51 214//51
f 213//52 214//52 215//52
f 215//52 214//52 216//52
f 215//53 216//53 217//53
f 217//53 216//53 218//53
f 217//54 218//54 219//54
f 219//54 218//54 220//54
f 219//55 220//55 221//55
f 221//56 220//56 222//56
f 221//57 222//57 223//57
f 223//57 222//57 224//57
f 223//58 224//58 225//58
f 225//58 224//58 226//58
f 225//59 226//59 227//59
f 227//60 226//60 228//60
f 227//61 228//61 229//61
f 229//61 228//61 230//61
f 229//62 230//62 231//62
f 231//62 230//62 232//62
f 231//63 232//63 233//63
f 233//63 232//63 234//63
f 233//64 234//64 235//64
f 235//64 234//64 236//64
f 235//65 236//65 237//65
f 237//65 236//65 238//65
f 237//66 238//66 239//66
f 239//66 238//66 240//66
f 239//67 240//67 241//67
f 241//67 240//67 242//67
f 241//68 242//68 243//68
f 243//69 242//69 244//69
f 243//70 244//70 245//70
f 245//70 244//70 246//70
f 245//71 246//71 247//71
f 247//71 246//71 248//71
f 247//72 248//72 249//72
f 249//72 248//72 250//72
f 249//73 250//73 251//73
f 251//73 250//73 252//73
f 251//74 252//74 253//74
f 253//74 252//74 254//74
f 253//75 254//75 255//75
f 255//75 254//75 256//75
f 255//76 256//76 257//76
f 257//76 256//76 258//76
f 257//77 258//77 259//77
f 259//77 258//77 260//77
f 259//78 260//78 261//78
f 261//78 260//78 262//78
f 261//79 262//79 205//79
f 205//79 262//79 206//79
f 27//80 248//80 26//80
f 26//80 248//80 246//80
f 26//80 246//80 140//80
f 140//80 246//80 142//80
f 142//80 246//80 244//80
f 142//80 244//80 144//80
f 144//80 244//80 242//80
f 144//81 242//81 146//81
f 146//80 242//80 148//80
f 148//80 242//80 240//80
f 148//80 240//80 150//80
f 150//80 240//80 238//80
f 150//80 238//80 152//80
f 152//80 238//80 64//80
f 152//80 64//80 65//80
f 248//80 27//80 250//80
f 250//80 27//80 28//80
f 250//82 28//82 29//82
f 250//80 29//80 252//80
f 252//81 29//81 30//81
f 252//80 30//80 254//80
f 254//82 30//82 31//82
f 254//81 31//81 32//81
f 33//80 168//80 32//80
f 32//80 168//80 256//80
f 32//80 256//80 254//80
f 34//80 172//80 33//80
f 33//80 172//80 170//80
f 33//80 170//80 168//80
f 35//80 118//80 34//80
f 34//80 118//80 116//80
f 34//80 116//80 172//80
f 172//80 116//80 114//80
f 172//80 114//80 174//80
f 174//80 114//80 176//80
f 176//80 114//80 112//80
f 176//80 112//80 100//80
f 100//80 112//80 110//80
f 100//80 110//80 99//80
f 99//80 110//80 98//80
f 98//80 110//80 132//80
f 98//80 132//80 188//80
f 188//80 132//80 130//80
f 188//83 130//83 190//83
f 190//80 130//80 192//80
f 192//80 130//80 128//80
f 192//80 128//80 68//80
f 68//80 128//80 126//80
f 68//80 126//80 67//80
f 67//81 126//81 66//81
f 66//80 126//80 124//80
f 66//80 124//80 156//80
f 156//80 124//80 122//80
f 156//80 122//80 134//80
f 134//80 122//80 136//80
f 136//80 122//80 120//80
f 136//80 120//80 36//80
f 36//80 120//80 118//80
f 36//80 118//80 35//80
f 36//82 25//82 136//82
f 136//80 25//80 138//80
f 138//80 25//80 140//80
f 140//80 25//80 26//80
f 63//80 234//80 62//80
f 62//80 234//80 232//80
f 62//80 232//80 61//80
f 61//81 232//81 72//81
f 72//80 232//80 230//80
f 72//84 230//84 71//84
f 71//80 230//80 228//80
f 71//80 228//80 70//80
f 70//80 228//80 196//80
f 70//80 196//80 69//80
f 69//80 196//80 194//80
f 69//80 194//80 192//80
f 234//80 63//80 236//80
f 236//80 63//80 64//80
f 236//80 64//80 238//80
f 66//80 156//80 65//80
f 65//80 156//80 154//80
f 65//82 154//82 152//82
f 68//80 69//80 192//80
f 100//85 101//85 176//85
f 176//80 101//80 178//80
f 178//85 101//85 180//85
f 180//85 101//85 102//85
f 180//80 102//80 208//80
f 208//80 102//80 210//80
f 210//80 102//80 103//80
f 210//82 103//82 104//82
f 210//80 104//80 212//80
f 212//80 104//80 105//80
f 212//80 105//80 214//80
f 214//82 105//82 106//82
f 214//80 106//80 107//80
f 214//80 107//80 216//80
f 216//80 107//80 108//80
f 216//80 108//80 218//80
f 218//80 108//80 184//80
f 218//80 184//80 220//80
f 220//81 184//81 182//81
f 220//80 182//80 204//80
f 108//80 97//80 184//80
f 184//80 97//80 186//80
f 186//80 97//80 188//80
f 188//80 97//80 98//80
f 158//80 206//80 160//80
f 160//80 206//80 262//80
f 160//80 262//80 162//80
f 162//80 262//80 260//80
f 162//80 260//80 164//80
f 164//80 260//80 166//80
f 166//80 260//80 258//80
f 166//80 258//80 168//80
f 168//80 258//80 256//80
f 158//80 180//80 206//80
f 206//80 180//80 208//80
f 220//80 204//80 222//80
f 222//80 204//80 202//80
f 222//80 202//80 224//80
f 224//80 202//80 200//80
f 224//85 200//85 198//85
f 224//80 198//80 226//80
f 226//80 198//80 196//80
f 226//80 196//80 228//80
f 5//86 255//86 3//86
f 3//86 255//86 167//86
f 3//86 167//86 1//86
f 1//86 167//86 169//86
f 1//86 169//86 171//86
f 255//86 5//86 253//86
f 253//86 5//86 7//86
f 253//86 7//86 251//86
f 251//86 7//86 9//86
f 251//86 9//86 249//86
f 249//86 9//86 11//86
f 249//87 11//87 13//87
f 249//86 13//86 247//86
f 247//86 13//86 15//86
f 247//86 15//86 245//86
f 245//86 15//86 139//86
f 245//88 139//88 141//88
f 15//86 17//86 139//86
f 139//86 17//86 137//86
f 137//86 17//86 135//86
f 135//86 17//86 19//86
f 135//86 19//86 119//86
f 119//86 19//86 21//86
f 119//86 21//86 117//86
f 117//86 21//86 115//86
f 115//86 21//86 23//86
f 115//86 23//86 171//86
f 171//86 23//86 1//86
f 41//87 127//87 39//87
f 39//86 127//86 191//86
f 39//86 191//86 37//86
f 37//86 191//86 193//86
f 37//86 193//86 195//86
f 127//86 41//86 125//86
f 125//86 41//86 43//86
f 125//86 43//86 123//86
f 123//86 43//86 155//86
f 123//86 155//86 121//86
f 121//86 155//86 133//86
f 121//86 133//86 135//86
f 43//86 45//86 155//86
f 155//86 45//86 153//86
f 153//87 45//87 151//87
f 151//86 45//86 47//86
f 151//86 47//86 237//86
f 237//86 47//86 235//86
f 235//86 47//86 49//86
f 235//86 49//86 233//86
f 233//86 49//86 51//86
f 233//86 51//86 231//86
f 231//86 51//86 53//86
f 231//86 53//86 55//86
f 231//86 55//86 229//86
f 229//86 55//86 57//86
f 229//86 57//86 227//86
f 227//86 57//86 59//86
f 227//86 59//86 225//86
f 225//86 59//86 195//86
f 225//86 195//86 197//86
f 59//86 37//86 195//86
f 77//86 209//86 75//86
f 75//86 209//86 211//86
f 75//86 211//86 73//86
f 73//86 211//86 213//86
f 73//86 213//86 95//86
f 95//86 213//86 215//86
f 95//87 215//87 93//87
f 93//86 215//86 91//86
f 91//86 215//86 217//86
f 91//86 217//86 183//86
f 183//86 217//86 219//86
f 183//87 219//87 181//87
f 181//88 219//88 203//88
f 203//86 219//86 221//86
f 203//86 221//86 201//86
f 201//86 221//86 223//86
f 201//86 223//86 199//86
f 199//86 223//86 197//86
f 197//86 223//86 225//86
f 209//86 77//86 207//86
f 207//86 77//86 79//86
f 207//86 79//86 179//86
f 179//88 79//88 81//88
f 179//86 81//86 177//86
f 177//87 81//87 175//87
f 175//86 81//86 83//86
f 175//86 83//86 111//86
f 111//86 83//86 109//86
f 109//86 83//86 85//86
f 109//86 85//86 131//86
f 131//86 85//86 87//86
f 131//86 87//86 187//86
f 187//86 87//86 89//86
f 187//86 89//86 185//86
f 185//86 89//86 183//86
f 183//86 89//86 91//86
f 111//87 113//87 175//87
f 175//86 113//86 173//86
f 173//86 113//86 171//86
f 171//86 113//86 115//86
f 119//86 121//86 135//86
f 127//86 129//86 191//86
f 191//86 129//86 189//86
f 189//86 129//86 187//86
f 187//86 129//86 131//86
f 245//86 141//86 243//86
f 243//87 141//87 143//87
f 243//86 143//86 241//86
f 241//86 143//86 145//86
f 241//86 145//86 147//86
f 241//86 147//86 239//86
f 239//86 147//86 149//86
f 239//86 149//86 237//86
f 237//87 149//87 151//87
f 161//86 261//86 159//86
f 159//86 261//86 205//86
f 159//86 205//86 157//86
f 157//87 205//87 179//87
f 179//86 205//86 207//86
f 261//86 161//86 259//86
f 259//86 161//86 163//86
f 259//87 163//87 165//87
f 259//86 165//86 257//86
f 257//87 165//87 167//87
f 257//88 167//88 255//88
