# Blender v2.83.3 OBJ File: ''
# www.blender.org
mtllib arm.mtl
o Arm
v -0.139871 4.945814 -0.280000
v -0.139871 4.945814 -0.560000
v -0.150000 5.000000 -0.280000
v -0.150000 5.000000 -0.560000
v -0.139871 5.054186 -0.280000
v -0.139871 5.054186 -0.560000
v -0.110851 5.101054 -0.560000
v -0.110851 4.898946 -0.280000
v -0.110851 4.898946 -0.560000
v -0.066861 4.865726 -0.280000
v -0.066861 4.865726 -0.560000
v -0.013840 4.850640 -0.280000
v -0.013840 4.850640 -0.560000
v 0.041049 4.855726 -0.280000
v 0.041049 4.855726 -0.560000
v 0.090395 4.880297 -0.280000
v 0.090395 4.880297 -0.560000
v 0.127533 4.921035 -0.280000
v 0.127533 4.921035 -0.560000
v 0.147446 4.972438 -0.280000
v 0.147446 4.972438 -0.560000
v 0.147446 5.027562 -0.280000
v 0.147446 5.027562 -0.560000
v 0.127533 5.078965 -0.280000
v 0.127533 5.078965 -0.560000
v 0.090395 5.119703 -0.280000
v 0.090395 5.119703 -0.560000
v 0.041049 5.144274 -0.280000
v 0.041049 5.144274 -0.560000
v -0.013840 5.149360 -0.280000
v -0.013840 5.149360 -0.560000
v -0.066861 5.134274 -0.280000
v -0.066861 5.134274 -0.560000
v -0.110851 5.101054 -0.280000
v -0.150000 -0.800000 -0.560000
v -0.300000 -0.800000 -0.560000
v -0.150000 -0.800000 -0.280000
v -0.300000 -0.800000 -0.280000
v -0.150000 -1.600000 -0.560000
v -0.150000 -1.600000 -0.280000
v -0.600000 -1.600000 -0.560000
v -0.600000 -1.600000 -0.280000
v -0.600000 0.000000 -0.560000
v -0.600000 0.000000 -0.280000
v -0.500000 5.000000 -0.560000
v -0.500000 5.000000 -0.280000
v 0.500000 5.000000 -0.280000
v 0.500000 5.000000 -0.560000
v 0.489074 5.103956 -0.280000
v 0.489074 5.103956 -0.560000
v 0.456773 5.203368 -0.280000
v 0.456773 5.203368 -0.560000
v 0.404509 5.293893 -0.280000
v 0.404509 5.293893 -0.560000
v 0.334565 5.371572 -0.280000
v 0.334565 5.371572 -0.560000
v 0.250000 5.433013 -0.280000
v 0.250000 5.433013 -0.560000
v 0.154509 5.475528 -0.280000
v 0.154509 5.475528 -0.560000
v 0.052264 5.497261 -0.280000
v 0.052264 5.497261 -0.560000
v -0.052264 5.497261 -0.280000
v -0.052264 5.497261 -0.560000
v -0.154509 5.475528 -0.280000
v -0.154509 5.475528 -0.560000
v -0.250000 5.433013 -0.280000
v -0.250000 5.433013 -0.560000
v -0.334565 5.371572 -0.280000
v -0.334565 5.371572 -0.560000
v -0.404509 5.293893 -0.280000
v -0.404509 5.293893 -0.560000
v -0.456773 5.203368 -0.280000
v -0.456773 5.203368 -0.560000
v -0.489074 5.103956 -0.280000
v -0.489074 5.103956 -0.560000
v 0.600000 0.000000 -0.560000
v 0.600000 0.000000 -0.280000
v 0.600000 -1.600000 -0.560000
v 0.600000 -1.600000 -0.280000
v 0.150000 -1.600000 -0.560000
v 0.150000 -1.600000 -0.280000
v 0.150000 -0.800000 -0.560000
v 0.150000 -0.800000 -0.280000
v 0.300000 -0.800000 -0.560000
v 0.300000 -0.800000 -0.280000
v 0.300000 -0.560000 -0.560000
v 0.300000 -0.560000 -0.280000
v 0.150000 -0.560000 -0.560000
v 0.150000 -0.560000 -0.280000
v 0.150000 -0.200000 -0.560000
v 0.150000 -0.200000 -0.280000
v -0.150000 -0.200000 -0.560000
v -0.201505 -0.147973 -0.560000
v -0.150000 -0.200000 -0.280000
v -0.201505 -0.147973 -0.280000
v -0.235730 -0.083256 -0.560000
v -0.235730 -0.083256 -0.280000
v -0.249740 -0.011400 -0.560000
v -0.249740 -0.011400 -0.280000
v -0.242334 0.061434 -0.560000
v -0.242334 0.061434 -0.280000
v -0.214148 0.128999 -0.560000
v -0.214148 0.128999 -0.280000
v -0.167597 0.185503 -0.560000
v -0.167597 0.185503 -0.280000
v -0.106675 0.226098 -0.560000
v -0.106675 0.226098 -0.280000
v -0.036605 0.247306 -0.560000
v -0.036605 0.247306 -0.280000
v 0.036605 0.247306 -0.560000
v 0.036605 0.247306 -0.280000
v 0.106675 0.226098 -0.560000
v 0.106675 0.226098 -0.280000
v 0.167597 0.185503 -0.560000
v 0.167597 0.185503 -0.280000
v 0.214148 0.128999 -0.560000
v 0.214148 0.128999 -0.280000
v 0.242334 0.061434 -0.560000
v 0.242334 0.061434 -0.280000
v 0.249740 -0.011400 -0.560000
v 0.249740 -0.011400 -0.280000
v 0.235730 -0.083256 -0.560000
v 0.235730 -0.083256 -0.280000
v 0.201505 -0.147973 -0.560000
v 0.201505 -0.147973 -0.280000
v -0.150000 -0.560000 -0.560000
v -0.150000 -0.560000 -0.280000
v -0.300000 -0.560000 -0.560000
v -0.300000 -0.560000 -0.280000
v 0.300000 -0.800000 0.000000
v -0.300000 -0.800000 0.000000
v 0.300000 -0.560000 0.000000
v -0.300000 -0.560000 0.000000
v 0.150000 -0.200000 0.000000
v -0.150000 -0.200000 0.000000
v -0.201505 -0.147973 0.000000
v -0.235730 -0.083256 0.000000
v -0.249740 -0.011400 0.000000
v -0.242334 0.061434 0.000000
v -0.214148 0.128999 0.000000
v -0.167597 0.185503 0.000000
v -0.106675 0.226098 0.000000
v -0.036605 0.247306 0.000000
v 0.036605 0.247306 0.000000
v 0.106675 0.226098 0.000000
v 0.167597 0.185503 0.000000
v 0.214148 0.128999 0.000000
v 0.242334 0.061434 0.000000
v 0.249740 -0.011400 0.000000
v 0.235730 -0.083256 0.000000
v 0.201505 -0.147973 0.000000
v -0.139871 4.945814 0.000000
v -0.150000 5.000000 0.000000
v -0.139871 5.054186 0.000000
v -0.110851 4.898946 0.000000
v -0.066861 4.865726 0.000000
v -0.013840 4.850640 0.000000
v 0.041049 4.855726 0.000000
v 0.090395 4.880297 0.000000
v 0.127533 4.921035 0.000000
v 0.147446 4.972438 0.000000
v 0.147446 5.027562 0.000000
v 0.127533 5.078965 0.000000
v 0.090395 5.119703 0.000000
v 0.041049 5.144274 0.000000
v -0.013840 5.149360 0.000000
v -0.066861 5.134274 0.000000
v -0.110851 5.101054 0.000000
v 0.600000 -1.600000 0.000000
v 0.600000 0.000000 0.000000
v -0.600000 -1.600000 0.000000
v -0.600000 0.000000 0.000000
v -0.500000 5.000000 0.000000
v 0.500000 5.000000 0.000000
v 0.489074 5.103956 0.000000
v 0.456773 5.203368 0.000000
v 0.404509 5.293893 0.000000
v 0.334565 5.371572 0.000000
v 0.250000 5.433013 0.000000
v 0.154509 5.475528 0.000000
v 0.052264 5.497261 0.000000
v -0.052264 5.497261 0.000000
v -0.154509 5.475528 0.000000
v -0.250000 5.433013 0.000000
v -0.334565 5.371572 0.000000
v -0.404509 5.293893 0.000000
v -0.456773 5.203368 0.000000
v -0.489074 5.103956 0.000000
v 0.300000 -0.800000 -0.840000
v -0.300000 -0.800000 -0.840000
v 0.300000 -0.560000 -0.840000
v -0.300000 -0.560000 -0.840000
v 0.150000 -0.200000 -0.840000
v -0.150000 -0.200000 -0.840000
v -0.201505 -0.147973 -0.840000
v -0.235730 -0.083256 -0.840000
v -0.249740 -0.011400 -0.840000
v -0.242334 0.061434 -0.840000
v -0.214148 0.128999 -0.840000
v -0.167597 0.185503 -0.840000
v -0.106675 0.226098 -0.840000
v -0.036605 0.247306 -0.840000
v 0.036605 0.247306 -0.840000
v 0.106675 0.226098 -0.840000
v 0.167597 0.185503 -0.840000
v 0.214148 0.128999 -0.840000
v 0.242334 0.061434 -0.840000
v 0.249740 -0.011400 -0.840000
v 0.235730 -0.083256 -0.840000
v 0.201505 -0.147973 -0.840000
v -0.139871 4.945814 -0.840000
v -0.150000 5.000000 -0.840000
v -0.139871 5.054186 -0.840000
v -0.110851 5.101054 -0.840000
v -0.110851 4.898946 -0.840000
v -0.066861 4.865726 -0.840000
v -0.013840 4.850640 -0.840000
v 0.041049 4.855726 -0.840000
v 0.090395 4.880297 -0.840000
v 0.127533 4.921035 -0.840000
v 0.147446 4.972438 -0.840000
v 0.147446 5.027562 -0.840000
v 0.127533 5.078965 -0.840000
v 0.090395 5.119703 -0.840000
v 0.041049 5.144274 -0.840000
v -0.013840 5.149360 -0.840000
v -0.066861 5.134274 -0.840000
v 0.600000 -1.600000 -0.840000
v 0.600000 0.000000 -0.840000
v -0.600000 -1.600000 -0.840000
v -0.600000 0.000000 -0.840000
v -0.500000 5.000000 -0.840000
v 0.500000 5.000000 -0.840000
v 0.489074 5.103956 -0.840000
v 0.456773 5.203368 -0.840000
v 0.404509 5.293893 -0.840000
v 0.334565 5.371572 -0.840000
v 0.250000 5.433013 -0.840000
v 0.154509 5.475528 -0.840000
v 0.052264 5.497261 -0.840000
v -0.052264 5.497261 -0.840000
v -0.154509 5.475528 -0.840000
v -0.250000 5.433013 -0.840000
v -0.334565 5.371572 -0.840000
v -0.404509 5.293893 -0.840000
v -0.456773 5.203368 -0.840000
v -0.489074 5.103956 -0.840000
vn 0.9830 0.1838 0.0000
vn 0.9830 -0.1838 0.0000
vn 0.8502 -0.5264 0.0000
vn 0.8502 0.5264 0.0000
vn 0.6026 0.7980 0.0000
vn 0.2737 0.9618 0.0000
vn -0.0923 0.9957 0.0000
vn -0.4457 0.8952 0.0000
vn -0.7390 0.6737 0.0000
vn -0.9325 0.3612 0.0000
vn -1.0000 0.0000 0.0000
vn -0.9325 -0.3612 0.0000
vn -0.7390 -0.6737 0.0000
vn -0.4457 -0.8952 0.0000
vn -0.0923 -0.9957 0.0000
vn 0.2737 -0.9618 0.0000
vn 0.6026 -0.7980 0.0000
vn 0.0000 1.0000 0.0000
vn 1.0000 0.0000 0.0000
vn 0.0000 -1.0000 0.0000
vn -0.9998 0.0200 0.0000
vn 0.9945 0.1045 0.0000
vn 0.9511 0.3090 0.0000
vn 0.8660 0.5000 0.0000
vn 0.7431 0.6691 0.0000
vn 0.5878 0.8090 0.0000
vn 0.4067 0.9135 0.0000
vn 0.2079 0.9781 0.0000
vn -0.2079 0.9781 0.0000
vn -0.4067 0.9135 0.0000
vn -0.5878 0.8090 0.0000
vn -0.7431 0.6691 0.0000
vn -0.8660 0.5000 0.0000
vn -0.9511 0.3090 0.0000
vn -0.9945 0.1045 0.0000
vn 0.9998 0.0200 0.0000
vn 0.7107 0.7035 0.0000
vn 0.8840 0.4675 0.0000
vn 0.9815 0.1914 0.0000
vn 0.9949 -0.1012 0.0000
vn 0.9229 -0.3850 0.0000
vn 0.7718 -0.6359 0.0000
vn 0.5545 -0.8322 0.0000
vn 0.2897 -0.9571 0.0000
vn -0.2897 -0.9571 0.0000
vn -0.5545 -0.8322 0.0000
vn -0.7718 -0.6359 0.0000
vn -0.9229 -0.3850 0.0000
vn -0.9949 -0.1012 0.0000
vn -0.9815 0.1914 0.0000
vn -0.8840 0.4675 0.0000
vn -0.7107 0.7035 0.0000
vn 0.0000 0.0000 1.0000
vn 0.0000 0.0000 -1.0000
usemtl None
s off
f 1//1 2//1 3//1
f 3//1 2//1 4//1
f 3//2 4//2 5//2
f 5//2 4//2 6//2
f 5//3 6//3 7//3
f 1//4 8//4 2//4
f 2//4 8//4 9//4
f 9//5 8//5 10//5
f 9//5 10//5 11//5
f 11//6 10//6 12//6
f 11//6 12//6 13//6
f 13//7 12//7 14//7
f 13//7 14//7 15//7
f 15//8 14//8 16//8
f 15//8 16//8 17//8
f 17//9 16//9 18//9
f 17//9 18//9 19//9
f 19//10 18//10 20//10
f 19//10 20//10 21//10
f 21//11 20//11 22//11
f 21//11 22//11 23//11
f 23//12 22//12 24//12
f 23//12 24//12 25//12
f 25//13 24//13 26//13
f 25//13 26//13 27//13
f 27//14 26//14 28//14
f 27//14 28//14 29//14
f 29//15 28//15 30//15
f 29//15 30//15 31//15
f 31//16 30//16 32//16
f 31//16 32//16 33//16
f 33//17 32//17 34//17
f 33//17 34//17 7//17
f 7//3 34//3 5//3
f 35//18 36//18 37//18
f 37//18 36//18 38//18
f 39//19 35//19 40//19
f 40//19 35//19 37//19
f 41//20 39//20 42//20
f 42//20 39//20 40//20
f 43//11 41//11 44//11
f 44//11 41//11 42//11
f 45//21 43//21 46//21
f 46//21 43//21 44//21
f 47//22 48//22 49//22
f 49//22 48//22 50//22
f 49//23 50//23 51//23
f 51//23 50//23 52//23
f 51//24 52//24 53//24
f 53//24 52//24 54//24
f 53//25 54//25 55//25
f 55//25 54//25 56//25
f 55//26 56//26 57//26
f 57//26 56//26 58//26
f 57//27 58//27 59//27
f 59//27 58//27 60//27
f 59//28 60//28 61//28
f 61//28 60//28 62//28
f 61//18 62//18 63//18
f 63//18 62//18 64//18
f 63//29 64//29 65//29
f 65//29 64//29 66//29
f 65//30 66//30 67//30
f 67//30 66//30 68//30
f 67//31 68//31 69//31
f 69//31 68//31 70//31
f 69//32 70//32 71//32
f 71//32 70//32 72//32
f 71//33 72//33 73//33
f 73//33 72//33 74//33
f 73//34 74//34 75//34
f 75//34 74//34 76//34
f 75//35 76//35 46//35
f 46//35 76//35 45//35
f 77//36 48//36 78//36
f 78//36 48//36 47//36
f 79//19 77//19 80//19
f 80//19 77//19 78//19
f 81//20 79//20 82//20
f 82//20 79//20 80//20
f 83//11 81//11 84//11
f 84//11 81//11 82//11
f 85//18 83//18 86//18
f 86//18 83//18 84//18
f 87//11 85//11 88//11
f 88//11 85//11 86//11
f 89//20 87//20 90//20
f 90//20 87//20 88//20
f 91//11 89//11 92//11
f 92//11 89//11 90//11
f 93//37 94//37 95//37
f 95//37 94//37 96//37
f 96//38 94//38 97//38
f 96//38 97//38 98//38
f 98//39 97//39 99//39
f 98//39 99//39 100//39
f 100//40 99//40 101//40
f 100//40 101//40 102//40
f 102//41 101//41 103//41
f 102//41 103//41 104//41
f 104//42 103//42 105//42
f 104//42 105//42 106//42
f 106//43 105//43 107//43
f 106//43 107//43 108//43
f 108//44 107//44 109//44
f 108//44 109//44 110//44
f 110//20 109//20 111//20
f 110//20 111//20 112//20
f 112//45 111//45 113//45
f 112//45 113//45 114//45
f 114//46 113//46 115//46
f 114//46 115//46 116//46
f 116//47 115//47 117//47
f 116//47 117//47 118//47
f 118//48 117//48 119//48
f 118//48 119//48 120//48
f 120//49 119//49 121//49
f 120//49 121//49 122//49
f 122//50 121//50 123//50
f 122//50 123//50 124//50
f 124//51 123//51 125//51
f 124//51 125//51 126//51
f 126//52 125//52 91//52
f 126//52 91//52 92//52
f 127//19 93//19 128//19
f 128//19 93//19 95//19
f 129//20 127//20 130//20
f 130//20 127//20 128//20
f 36//19 129//19 38//19
f 38//19 129//19 130//19
f 5//53 34//53 65//53
f 65//53 34//53 63//53
f 61//53 26//53 59//53
f 59//53 26//53 24//53
f 59//53 24//53 22//53
f 59//53 22//53 57//53
f 57//53 22//53 20//53
f 57//53 20//53 55//53
f 47//53 20//53 118//53
f 118//53 20//53 18//53
f 118//53 18//53 116//53
f 116//53 18//53 16//53
f 114//53 14//53 112//53
f 110//53 12//53 10//53
f 108//53 10//53 8//53
f 108//53 8//53 106//53
f 106//53 8//53 1//53
f 106//53 1//53 104//53
f 104//53 1//53 46//53
f 104//53 46//53 102//53
f 98//53 130//53 96//53
f 96//53 130//53 128//53
f 96//53 128//53 95//53
f 3//53 69//53 1//53
f 1//53 69//53 71//53
f 46//53 71//53 73//53
f 46//53 73//53 75//53
f 130//53 44//53 38//53
f 38//53 42//53 40//53
f 47//53 120//53 78//53
f 88//53 122//53 124//53
f 92//53 90//53 126//53
f 126//53 90//53 88//53
f 88//53 86//53 78//53
f 80//53 86//53 82//53
f 82//53 86//53 84//53
f 40//53 37//53 38//53
f 4//54 70//54 68//54
f 4//54 68//54 66//54
f 9//54 105//54 2//54
f 2//54 105//54 103//54
f 45//54 103//54 101//54
f 45//54 101//54 43//54
f 43//54 101//54 99//54
f 129//54 97//54 94//54
f 107//54 9//54 11//54
f 109//54 13//54 111//54
f 111//54 13//54 15//54
f 111//54 15//54 113//54
f 113//54 15//54 17//54
f 113//54 17//54 115//54
f 115//54 19//54 117//54
f 60//54 27//54 62//54
f 62//54 27//54 29//54
f 62//54 31//54 64//54
f 64//54 31//54 33//54
f 64//54 33//54 7//54
f 64//54 7//54 66//54
f 129//54 36//54 43//54
f 43//54 36//54 41//54
f 41//54 36//54 39//54
f 39//54 36//54 35//54
f 45//54 72//54 2//54
f 119//54 77//54 121//54
f 121//54 87//54 123//54
f 123//54 87//54 125//54
f 125//54 87//54 89//54
f 125//54 89//54 91//54
f 87//54 77//54 85//54
f 85//54 79//54 81//54
f 81//54 83//54 85//54
f 93//54 127//54 94//54
f 94//54 127//54 129//54
f 86//18 38//18 131//18
f 131//18 38//18 132//18
f 88//11 86//11 133//11
f 133//11 86//11 131//11
f 130//20 88//20 134//20
f 134//20 88//20 133//20
f 38//19 130//19 132//19
f 132//19 130//19 134//19
f 92//18 95//18 135//18
f 135//18 95//18 136//18
f 95//37 96//37 136//37
f 136//37 96//37 137//37
f 137//38 96//38 98//38
f 137//38 98//38 138//38
f 138//39 98//39 100//39
f 138//39 100//39 139//39
f 139//40 100//40 102//40
f 139//40 102//40 140//40
f 140//41 102//41 104//41
f 140//41 104//41 141//41
f 141//42 104//42 106//42
f 141//42 106//42 142//42
f 142//43 106//43 108//43
f 142//43 108//43 143//43
f 143//44 108//44 110//44
f 143//44 110//44 144//44
f 144//20 110//20 112//20
f 144//20 112//20 145//20
f 145//45 112//45 114//45
f 145//45 114//45 146//45
f 146//46 114//46 116//46
f 146//46 116//46 147//46
f 147//47 116//47 118//47
f 147//47 118//47 148//47
f 148//48 118//48 120//48
f 148//48 120//48 149//48
f 149//49 120//49 122//49
f 149//49 122//49 150//49
f 150//50 122//50 124//50
f 150//50 124//50 151//50
f 151//51 124//51 126//51
f 151//51 126//51 152//51
f 152//52 126//52 92//52
f 152//52 92//52 135//52
f 153//1 1//1 154//1
f 154//1 1//1 3//1
f 154//2 3//2 155//2
f 155//2 3//2 5//2
f 155//3 5//3 34//3
f 153//4 156//4 1//4
f 1//4 156//4 8//4
f 8//5 156//5 157//5
f 8//5 157//5 10//5
f 10//6 157//6 158//6
f 10//6 158//6 12//6
f 12//7 158//7 159//7
f 12//7 159//7 14//7
f 14//8 159//8 160//8
f 14//8 160//8 16//8
f 16//9 160//9 161//9
f 16//9 161//9 18//9
f 18//10 161//10 162//10
f 18//10 162//10 20//10
f 20//11 162//11 163//11
f 20//11 163//11 22//11
f 22//12 163//12 164//12
f 22//12 164//12 24//12
f 24//13 164//13 165//13
f 24//13 165//13 26//13
f 26//14 165//14 166//14
f 26//14 166//14 28//14
f 28//15 166//15 167//15
f 28//15 167//15 30//15
f 30//16 167//16 168//16
f 30//16 168//16 32//16
f 32//17 168//17 169//17
f 32//17 169//17 34//17
f 34//3 169//3 155//3
f 80//19 78//19 170//19
f 170//19 78//19 171//19
f 42//20 80//20 172//20
f 172//20 80//20 170//20
f 44//11 42//11 173//11
f 173//11 42//11 172//11
f 46//21 44//21 174//21
f 174//21 44//21 173//21
f 175//22 47//22 176//22
f 176//22 47//22 49//22
f 176//23 49//23 177//23
f 177//23 49//23 51//23
f 177//24 51//24 178//24
f 178//24 51//24 53//24
f 178//25 53//25 179//25
f 179//25 53//25 55//25
f 179//26 55//26 180//26
f 180//26 55//26 57//26
f 180//27 57//27 181//27
f 181//27 57//27 59//27
f 181//28 59//28 182//28
f 182//28 59//28 61//28
f 182//18 61//18 183//18
f 183//18 61//18 63//18
f 183//29 63//29 184//29
f 184//29 63//29 65//29
f 184//30 65//30 185//30
f 185//30 65//30 67//30
f 185//31 67//31 186//31
f 186//31 67//31 69//31
f 186//32 69//32 187//32
f 187//32 69//32 71//32
f 187//33 71//33 188//33
f 188//33 71//33 73//33
f 188//34 73//34 189//34
f 189//34 73//34 75//34
f 189//35 75//35 174//35
f 174//35 75//35 46//35
f 78//36 47//36 171//36
f 171//36 47//36 175//36
f 155//53 184//53 154//53
f 154//53 184//53 185//53
f 154//53 185//53 186//53
f 155//53 169//53 184//53
f 184//53 169//53 183//53
f 183//53 169//53 168//53
f 183//53 168//53 167//53
f 183//53 167//53 182//53
f 182//53 167//53 166//53
f 182//53 166//53 165//53
f 182//53 165//53 181//53
f 181//53 165//53 164//53
f 181//53 164//53 163//53
f 181//53 163//53 180//53
f 180//53 163//53 162//53
f 180//53 162//53 179//53
f 179//53 162//53 178//53
f 178//53 162//53 175//53
f 178//53 175//53 177//53
f 177//53 175//53 176//53
f 175//53 162//53 148//53
f 148//53 162//53 161//53
f 148//53 161//53 147//53
f 147//53 161//53 160//53
f 147//53 160//53 146//53
f 146//53 160//53 159//53
f 146//53 159//53 145//53
f 145//53 159//53 158//53
f 145//53 158//53 144//53
f 144//53 158//53 157//53
f 144//53 157//53 143//53
f 143//53 157//53 156//53
f 143//53 156//53 142//53
f 142//53 156//53 153//53
f 142//53 153//53 141//53
f 141//53 153//53 174//53
f 141//53 174//53 140//53
f 140//53 174//53 173//53
f 140//53 173//53 139//53
f 139//53 173//53 134//53
f 139//53 134//53 138//53
f 138//53 134//53 137//53
f 137//53 134//53 136//53
f 136//53 134//53 133//53
f 136//53 133//53 135//53
f 135//53 133//53 152//53
f 152//53 133//53 151//53
f 151//53 133//53 150//53
f 150//53 133//53 171//53
f 150//53 171//53 149//53
f 149//53 171//53 175//53
f 149//53 175//53 148//53
f 154//53 186//53 153//53
f 153//53 186//53 187//53
f 153//53 187//53 174//53
f 174//53 187//53 188//53
f 174//53 188//53 189//53
f 134//53 173//53 132//53
f 132//53 173//53 172//53
f 132//53 172//53 170//53
f 132//53 170//53 131//53
f 131//53 170//53 171//53
f 131//53 171//53 133//53
f 3//54 69//54 67//54
f 3//54 67//54 65//54
f 46//54 102//54 44//54
f 44//54 102//54 100//54
f 44//54 100//54 130//54
f 130//54 100//54 98//54
f 108//54 10//54 110//54
f 110//54 12//54 112//54
f 112//54 12//54 14//54
f 114//54 14//54 16//54
f 114//54 16//54 116//54
f 47//54 20//54 53//54
f 47//54 53//54 51//54
f 20//54 55//54 53//54
f 61//54 26//54 28//54
f 61//54 28//54 30//54
f 61//54 30//54 63//54
f 63//54 30//54 32//54
f 63//54 32//54 34//54
f 65//54 5//54 3//54
f 126//54 88//54 92//54
f 92//54 88//54 130//54
f 92//54 130//54 95//54
f 95//54 130//54 96//54
f 126//54 124//54 88//54
f 88//54 122//54 78//54
f 78//54 122//54 120//54
f 47//54 120//54 118//54
f 86//54 78//54 80//54
f 86//54 80//54 42//54
f 86//54 42//54 38//54
f 38//54 42//54 44//54
f 46//54 71//54 1//54
f 51//54 49//54 47//54
f 190//18 191//18 85//18
f 85//18 191//18 36//18
f 192//11 190//11 87//11
f 87//11 190//11 85//11
f 193//20 192//20 129//20
f 129//20 192//20 87//20
f 191//19 193//19 36//19
f 36//19 193//19 129//19
f 194//18 195//18 91//18
f 91//18 195//18 93//18
f 195//37 196//37 93//37
f 93//37 196//37 94//37
f 94//38 196//38 197//38
f 94//38 197//38 97//38
f 97//39 197//39 198//39
f 97//39 198//39 99//39
f 99//40 198//40 199//40
f 99//40 199//40 101//40
f 101//41 199//41 200//41
f 101//41 200//41 103//41
f 103//42 200//42 201//42
f 103//42 201//42 105//42
f 105//43 201//43 202//43
f 105//43 202//43 107//43
f 107//44 202//44 203//44
f 107//44 203//44 109//44
f 109//20 203//20 204//20
f 109//20 204//20 111//20
f 111//45 204//45 205//45
f 111//45 205//45 113//45
f 113//46 205//46 206//46
f 113//46 206//46 115//46
f 115//47 206//47 207//47
f 115//47 207//47 117//47
f 117//48 207//48 208//48
f 117//48 208//48 119//48
f 119//49 208//49 209//49
f 119//49 209//49 121//49
f 121//50 209//50 210//50
f 121//50 210//50 123//50
f 123//51 210//51 211//51
f 123//51 211//51 125//51
f 125//52 211//52 194//52
f 125//52 194//52 91//52
f 2//1 212//1 4//1
f 4//1 212//1 213//1
f 4//2 213//2 6//2
f 6//2 213//2 214//2
f 6//3 214//3 215//3
f 2//4 9//4 212//4
f 212//4 9//4 216//4
f 216//5 9//5 11//5
f 216//5 11//5 217//5
f 217//6 11//6 13//6
f 217//6 13//6 218//6
f 218//7 13//7 15//7
f 218//7 15//7 219//7
f 219//8 15//8 17//8
f 219//8 17//8 220//8
f 220//9 17//9 19//9
f 220//9 19//9 221//9
f 221//10 19//10 21//10
f 221//10 21//10 222//10
f 222//11 21//11 23//11
f 222//11 23//11 223//11
f 223//12 23//12 25//12
f 223//12 25//12 224//12
f 224//13 25//13 27//13
f 224//13 27//13 225//13
f 225//14 27//14 29//14
f 225//14 29//14 226//14
f 226//15 29//15 31//15
f 226//15 31//15 227//15
f 227//16 31//16 33//16
f 227//16 33//16 228//16
f 228//17 33//17 7//17
f 228//17 7//17 215//17
f 215//3 7//3 6//3
f 229//19 230//19 79//19
f 79//19 230//19 77//19
f 231//20 229//20 41//20
f 41//20 229//20 79//20
f 232//11 231//11 43//11
f 43//11 231//11 41//11
f 233//21 232//21 45//21
f 45//21 232//21 43//21
f 48//22 234//22 50//22
f 50//22 234//22 235//22
f 50//23 235//23 52//23
f 52//23 235//23 236//23
f 52//24 236//24 54//24
f 54//24 236//24 237//24
f 54//25 237//25 56//25
f 56//25 237//25 238//25
f 56//26 238//26 58//26
f 58//26 238//26 239//26
f 58//27 239//27 60//27
f 60//27 239//27 240//27
f 60//28 240//28 62//28
f 62//28 240//28 241//28
f 62//18 241//18 64//18
f 64//18 241//18 242//18
f 64//29 242//29 66//29
f 66//29 242//29 243//29
f 66//30 243//30 68//30
f 68//30 243//30 244//30
f 68//31 244//31 70//31
f 70//31 244//31 245//31
f 70//32 245//32 72//32
f 72//32 245//32 246//32
f 72//33 246//33 74//33
f 74//33 246//33 247//33
f 74//34 247//34 76//34
f 76//34 247//34 248//34
f 76//35 248//35 45//35
f 45//35 248//35 233//35
f 230//36 234//36 77//36
f 77//36 234//36 48//36
f 6//53 66//53 4//53
f 6//53 7//53 66//53
f 62//53 31//53 29//53
f 60//53 27//53 25//53
f 60//53 25//53 23//53
f 60//53 23//53 58//53
f 58//53 23//53 21//53
f 58//53 21//53 56//53
f 56//53 21//53 54//53
f 54//53 21//53 48//53
f 54//53 48//53 52//53
f 52//53 48//53 50//53
f 48//53 21//53 117//53
f 117//53 21//53 19//53
f 115//53 19//53 17//53
f 109//53 13//53 11//53
f 109//53 11//53 107//53
f 107//53 9//53 105//53
f 103//53 2//53 45//53
f 99//53 43//53 129//53
f 99//53 129//53 97//53
f 94//53 129//53 93//53
f 93//53 129//53 87//53
f 93//53 87//53 91//53
f 91//53 87//53 125//53
f 121//53 87//53 77//53
f 119//53 77//53 48//53
f 119//53 48//53 117//53
f 4//53 70//53 2//53
f 2//53 70//53 72//53
f 45//53 72//53 74//53
f 45//53 74//53 76//53
f 36//53 41//53 79//53
f 36//53 79//53 85//53
f 85//53 79//53 77//53
f 212//54 245//54 213//54
f 213//54 245//54 244//54
f 213//54 244//54 243//54
f 216//54 201//54 212//54
f 212//54 201//54 200//54
f 212//54 200//54 233//54
f 233//54 200//54 199//54
f 233//54 199//54 232//54
f 232//54 199//54 198//54
f 232//54 198//54 193//54
f 193//54 198//54 197//54
f 193//54 197//54 196//54
f 201//54 216//54 202//54
f 202//54 216//54 217//54
f 202//54 217//54 203//54
f 203//54 217//54 218//54
f 203//54 218//54 204//54
f 204//54 218//54 219//54
f 204//54 219//54 205//54
f 205//54 219//54 220//54
f 205//54 220//54 206//54
f 206//54 220//54 221//54
f 206//54 221//54 207//54
f 207//54 221//54 222//54
f 207//54 222//54 234//54
f 234//54 222//54 237//54
f 234//54 237//54 236//54
f 223//54 239//54 222//54
f 222//54 239//54 238//54
f 222//54 238//54 237//54
f 239//54 223//54 240//54
f 240//54 223//54 224//54
f 240//54 224//54 225//54
f 240//54 225//54 241//54
f 241//54 225//54 226//54
f 241//54 226//54 227//54
f 241//54 227//54 242//54
f 242//54 227//54 228//54
f 242//54 228//54 215//54
f 242//54 215//54 243//54
f 243//54 215//54 214//54
f 243//54 214//54 213//54
f 211//54 192//54 194//54
f 194//54 192//54 193//54
f 194//54 193//54 195//54
f 195//54 193//54 196//54
f 211//54 210//54 192//54
f 192//54 210//54 209//54
f 192//54 209//54 230//54
f 230//54 209//54 208//54
f 230//54 208//54 234//54
f 234//54 208//54 207//54
f 192//54 230//54 190//54
f 190//54 230//54 229//54
f 190//54 229//54 231//54
f 190//54 231//54 191//54
f 191//54 231//54 232//54
f 191//54 232//54 193//54
f 248//54 247//54 233//54
f 233//54 247//54 246//54
f 233//54 246//54 212//54
f 212//54 246//54 245//54
f 236//54 235//54 234//54
