# Blender v2.80 (sub 75) OBJ File: ''
# www.blender.org
mtllib viewCube.mtl
o Cube.001
v -1.000000 -1.000000 -1.000000
v -1.000000 -1.000000 1.000000
v -1.000000 1.000000 -1.000000
v -1.000000 1.000000 1.000000
v 1.000000 -1.000000 -1.000000
v 1.000000 -1.000000 1.000000
v 1.000000 1.000000 -1.000000
v 1.000000 1.000000 1.000000
vt 0.331922 0.998337
vt 0.000687 0.667102
vt 0.331922 0.667102
vt 0.998627 0.665825
vt 0.666976 0.334175
vt 0.998627 0.334175
vt 0.667107 0.998678
vt 0.334124 0.665695
vt 0.667107 0.665695
vt 0.998275 0.998275
vt 0.667328 0.667328
vt 0.998275 0.667328
vt 0.333356 0.334583
vt 0.001291 0.666648
vt 0.001291 0.334583
vt 0.000587 0.333681
vt 0.333485 0.000783
vt 0.333485 0.333681
vt 0.000687 0.998337
vt 0.666976 0.665825
vt 0.334124 0.998678
vt 0.667328 0.998275
vt 0.333356 0.666648
vt 0.000587 0.000784
vn -1.0000 0.0000 0.0000
vn 0.0000 1.0000 0.0000
vn 1.0000 0.0000 0.0000
vn 0.0000 -1.0000 0.0000
vn 0.0000 0.0000 -1.0000
vn 0.0000 0.0000 1.0000
usemtl Material.001
s off
f 2/1/1 3/2/1 1/3/1
f 4/4/2 7/5/2 3/6/2
f 8/7/3 5/8/3 7/9/3
f 6/10/4 1/11/4 5/12/4
f 7/13/5 1/14/5 3/15/5
f 4/16/6 6/17/6 8/18/6
f 2/1/1 4/19/1 3/2/1
f 4/4/2 8/20/2 7/5/2
f 8/7/3 6/21/3 5/8/3
f 6/10/4 2/22/4 1/11/4
f 7/13/5 5/23/5 1/14/5
f 4/16/6 2/24/6 6/17/6
o Plane_Plane.001
v -2.114115 -2.114115 -1.000000
v 2.114115 -2.114115 -1.000000
v -2.114115 2.114115 -1.000000
v 2.114115 2.114115 -1.000000
vt 0.615736 0.384264
vt 0.384264 0.615736
vt 0.384264 0.384264
vt 0.615736 0.615736
vn 0.0000 0.0000 1.0000
usemtl Material.001
s off
f 10/25/7 11/26/7 9/27/7
f 10/25/7 12/28/7 11/26/7
